<svg width="224" height="45" viewBox="0 0 224 45" fill="none" xmlns="http://www.w3.org/2000/svg">
<path d="M43.4434 0.563416C52.3403 0.563416 61.9725 5.41191 63.629 16.8838H52.8305C51.2979 12.5283 48.044 10.5647 43.4434 10.5647C37.0003 10.5647 32.7688 15.4103 32.7688 22.5295C32.7688 28.8486 36.9412 34.3705 43.4434 34.4324C48.1059 34.4324 51.8501 32.0998 53.0136 27.4992H63.8121C62.2176 39.6472 52.5854 44.4337 43.4434 44.4337C32.5209 44.4957 21.4773 37.1314 21.4153 22.5295C21.4773 7.92772 32.5209 0.563416 43.4434 0.563416Z" fill="#FFC737"/>
<path d="M83.8767 8.46023C83.8767 13.3651 80.4791 16.5993 75.4813 16.5993H71.5061V22.7831H65.6406V0.352173H75.4785C80.5749 0.352173 83.8739 3.5892 83.8739 8.46023H83.8767ZM77.9154 8.46023C77.9154 6.53605 76.7941 5.44859 74.9038 5.44859H71.5061V11.5367H74.9038C76.7941 11.5367 77.9154 10.3844 77.9154 8.46023Z" fill="#FFC737"/>
<path d="M105.093 22.4648V22.7859H98.78L97.4982 19.9349H89.038L87.7871 22.7859H81.4736V22.4648L92.0186 0.129578H94.5823L105.093 22.4676V22.4648ZM91.1847 14.8695H95.3176L93.2976 9.38989L91.1819 14.8695H91.1847Z" fill="#FFC737"/>
<path d="M124.93 22.6254V22.786H118.36L114.579 15.864H111.438V22.786H105.572V0.352173H115.123C120.154 0.352173 123.679 3.5244 123.679 8.26866C123.679 10.9929 122.301 13.3003 120.025 14.6131L124.927 22.6254H124.93ZM111.438 10.8972H114.836C116.661 10.8972 117.751 9.87167 117.751 8.14188C117.751 6.41209 116.661 5.4176 114.836 5.4176H111.438V10.8972Z" fill="#FFC737"/>
<path d="M141.337 5.60917H135.923V22.786H130.057V5.60917H124.642V0.352173H141.34V5.60917H141.337Z" fill="#FFC737"/>
<path d="M162.072 0.352134V22.8507H159.7L148.386 11.4099L148.451 15.447V22.7859H142.681V0.256348H145.053L156.398 11.3451L156.303 7.36991V0.352134H162.072Z" fill="#FFC737"/>
<path d="M179.568 17.529V22.786H165.276V0.352173H179.28V5.57536H171.107V8.90817H178.638V14.0356H171.107V17.529H179.568Z" fill="#FFC737"/>
<path d="M201.359 22.6254V22.786H194.789L191.008 15.864H187.867V22.786H182.002V0.352173H191.552C196.584 0.352173 200.108 3.5244 200.108 8.26866C200.108 10.9929 198.731 13.3003 196.454 14.6131L201.356 22.6254H201.359ZM187.867 10.8972H191.265C193.09 10.8972 194.181 9.87167 194.181 8.14188C194.181 6.41209 193.09 5.4176 191.265 5.4176H187.867V10.8972Z" fill="#FFC737"/>
<path d="M201.711 15.5738H207.447C207.447 17.112 208.664 18.0107 210.91 18.0107C212.991 18.0107 214.211 17.2726 214.211 16.0245C214.211 14.7765 212.834 14.3257 210.205 14.0384C204.083 13.365 201.937 10.6098 201.937 6.82901C201.937 2.79189 205.495 0.00280762 210.718 0.00280762C215.941 0.00280762 219.499 2.94966 219.499 7.34175H213.859C213.859 5.93031 212.707 5.09922 210.783 5.09922C208.859 5.09922 207.771 5.83734 207.771 7.0234C207.771 8.14467 208.605 8.72221 211.2 8.97858C217.705 9.62091 220.142 12.1846 220.142 16.1879C220.142 20.1912 216.423 23.1409 210.977 23.1409C205.176 23.1409 201.714 20.3208 201.714 15.5766L201.711 15.5738Z" fill="#FFC737"/>
<path d="M17.0993 27.4401C18.1473 27.4992 19.1474 27.5865 20.0659 27.7246C19.7616 26.0934 19.5898 24.3692 19.5841 22.5437C19.5898 21.1745 19.6912 19.8645 19.863 18.6051C19.494 18.5629 19.1249 18.5206 18.7558 18.4812C14.8906 18.053 11.6986 17.3768 11.9465 14.1257C12.2226 10.2886 18.8347 9.06592 22.083 11.1338C23.6241 7.94184 25.7905 5.30207 28.3627 3.23702C18.8488 -2.90459 1.24661 0.760655 1.51425 14.2469C1.63539 23.572 7.77137 26.7639 17.0993 27.4372V27.4401Z" fill="#FFC737"/>
<path d="M22.3084 34.4127C18.3952 35.9228 11.5155 34.7818 11.5155 30.8743H0.900094C0.722607 44.5182 18.9023 48.1497 29.0247 42.3264C26.2948 40.298 23.9678 37.6582 22.3084 34.4127Z" fill="#FFC737"/>
<path d="M66.0322 27.9669L65.9843 28.3247C64.9025 36.5623 60.4512 41.6587 55.0815 44.4478H223.1V27.9641H66.0322V27.9669ZM114.895 39.8388L112.046 38.3428L109.198 39.8388L109.742 36.6665L107.437 34.4212L110.621 33.9592L112.044 31.0743L113.466 33.9592L116.65 34.4212L114.345 36.6665L114.889 39.8388H114.895ZM130.564 39.8388L127.716 38.3428L124.868 39.8388L125.411 36.6665L123.107 34.4212L126.29 33.9592L127.713 31.0743L129.136 33.9592L132.319 34.4212L130.015 36.6665L130.559 39.8388H130.564ZM146.234 39.8388L143.386 38.3428L140.537 39.8388L141.081 36.6665L138.777 34.4212L141.96 33.9592L143.383 31.0743L144.805 33.9592L147.989 34.4212L145.684 36.6665L146.228 39.8388H146.234ZM161.903 39.8388L159.055 38.3428L156.207 39.8388L156.751 36.6665L154.446 34.4212L157.63 33.9592L159.052 31.0743L160.475 33.9592L163.659 34.4212L161.354 36.6665L161.898 39.8388H161.903ZM177.573 39.8388L174.725 38.3428L171.876 39.8388L172.42 36.6665L170.116 34.4212L173.299 33.9592L174.722 31.0743L176.145 33.9592L179.328 34.4212L177.024 36.6665L177.567 39.8388H177.573Z" fill="#FFC737"/>
</svg>
