<svg width="0" height="0" class="hidden">
    <symbol fill="none" xmlns="http://www.w3.org/2000/svg" viewBox="0 0 16 16" id="arrow-right">
        <path fill-rule="evenodd" clip-rule="evenodd" d="M9.39412 4.84346C9.66467 4.59372 10.0864 4.61059 10.3362 4.88114L12.49 7.21444C12.7258 7.46982 12.7258 7.86344 12.49 8.11882L10.3362 10.4522C10.0865 10.7227 9.66468 10.7396 9.39413 10.4899C9.12358 10.2401 9.10671 9.81836 9.35644 9.54781L10.4775 8.3333L4.00016 8.3333C3.63197 8.3333 3.3335 8.03482 3.3335 7.66663C3.3335 7.29844 3.63197 6.99997 4.00016 6.99997L10.4775 6.99997L9.35645 5.78552C9.10671 5.51497 9.12358 5.0932 9.39412 4.84346Z" fill="#E6E8EC"></path>
    </symbol>
    <symbol fill="none" xmlns="http://www.w3.org/2000/svg" viewBox="0 0 35 35" id="chart">
        <path fill-rule="evenodd" clip-rule="evenodd" d="M1.45825 8.75C1.45825 6.33376 3.41701 4.375 5.83325 4.375H29.1666C31.5828 4.375 33.5416 6.33375 33.5416 8.75V26.25C33.5416 28.6662 31.5828 30.625 29.1666 30.625H5.83325C3.41701 30.625 1.45825 28.6662 1.45825 26.25V8.75ZM7.29159 21.875C7.29159 21.0696 7.9445 20.4167 8.74992 20.4167C9.55534 20.4167 10.2083 21.0696 10.2083 21.875V24.7917C10.2083 25.5971 9.55534 26.25 8.74992 26.25C7.9445 26.25 7.29159 25.5971 7.29159 24.7917V21.875ZM14.5833 11.6667C13.7778 11.6667 13.1249 12.3196 13.1249 13.125V24.7917C13.1249 25.5971 13.7778 26.25 14.5833 26.25C15.3887 26.25 16.0416 25.5971 16.0416 24.7917V13.125C16.0416 12.3196 15.3887 11.6667 14.5833 11.6667ZM18.9583 16.0417C18.9583 15.2363 19.6112 14.5833 20.4166 14.5833C21.222 14.5833 21.8749 15.2363 21.8749 16.0417V24.7917C21.8749 25.5971 21.222 26.25 20.4166 26.25C19.6112 26.25 18.9583 25.5971 18.9583 24.7917V16.0417ZM26.2499 8.75C25.4445 8.75 24.7916 9.40292 24.7916 10.2083V24.7917C24.7916 25.5971 25.4445 26.25 26.2499 26.25C27.0553 26.25 27.7083 25.5971 27.7083 24.7917V10.2083C27.7083 9.40292 27.0553 8.75 26.2499 8.75Z" fill="#353945"></path>
    </symbol>
    <symbol fill="none" xmlns="http://www.w3.org/2000/svg" viewBox="0 0 14 10" id="check">
        <path d="M1 5L5 9L13 1" stroke="#58BD7D" stroke-width="2" stroke-miterlimit="10" stroke-linecap="round" stroke-linejoin="round"></path>
    </symbol>
    <symbol fill="none" xmlns="http://www.w3.org/2000/svg" viewBox="0 0 24 24" id="eye">
        <path fill-rule="evenodd" clip-rule="evenodd" d="M12.0001 18C16.1256 18 19.0593 15.4076 20.7773 13.2486C21.3732 12.4998 21.3732 11.5002 20.7773 10.7514C19.0593 8.59239 16.1256 6 12.0001 6C7.87457 6 4.94086 8.59238 3.2228 10.7514C2.6269 11.5002 2.6269 12.4998 3.2228 13.2486C4.94086 15.4076 7.87457 18 12.0001 18ZM22.3423 14.494C23.5182 13.0163 23.5182 10.9837 22.3423 9.506C20.474 7.15826 17.0266 4 12.0001 4C6.97353 4 3.52612 7.15826 1.65785 9.506C0.481891 10.9837 0.48189 13.0163 1.65784 14.494C3.52612 16.8417 6.97353 20 12.0001 20C17.0266 20 20.474 16.8417 22.3423 14.494Z" fill="#777E91"></path>
        <path fill-rule="evenodd" clip-rule="evenodd" d="M14 12C14 13.1046 13.1046 14 12 14C10.8954 14 10 13.1046 10 12C10 11.9716 10.0006 11.9434 10.0018 11.9153C10.1577 11.9701 10.3253 12 10.5 12C11.3284 12 12 11.3284 12 10.5C12 10.3253 11.9701 10.1577 11.9153 10.0018C11.9434 10.0006 11.9716 10 12 10C13.1046 10 14 10.8954 14 12ZM16 12C16 14.2091 14.2091 16 12 16C9.79086 16 8 14.2091 8 12C8 9.79086 9.79086 8 12 8C14.2091 8 16 9.79086 16 12Z" fill="#777E91"></path>
    </symbol>
    <symbol fill="none" xmlns="http://www.w3.org/2000/svg" viewBox="0 0 25 25" id="lock">
        <path fill-rule="evenodd" clip-rule="evenodd" d="M3.24081 13.78C3.40768 11.4712 5.22266 9.67871 7.53282 9.53187C8.91435 9.44405 10.6036 9.375 12.5 9.375C14.3964 9.375 16.0856 9.44405 17.4672 9.53187C19.7773 9.67871 21.5923 11.4712 21.7592 13.78C21.8265 14.7119 21.875 15.7135 21.875 16.6667C21.875 17.6198 21.8265 18.6215 21.7592 19.5533C21.5923 21.8621 19.7773 23.6546 17.4672 23.8015C16.0856 23.8893 14.3964 23.9583 12.5 23.9583C10.6036 23.9583 8.91435 23.8893 7.53282 23.8015C5.22267 23.6546 3.40768 21.8621 3.24081 19.5533C3.17346 18.6215 3.125 17.6198 3.125 16.6667C3.125 15.7135 3.17346 14.7119 3.24081 13.78ZM14.5833 15.625C14.5833 16.3961 14.1644 17.0694 13.5417 17.4296V18.75C13.5417 19.3253 13.0753 19.7917 12.5 19.7917C11.9247 19.7917 11.4583 19.3253 11.4583 18.75V17.4296C10.8356 17.0694 10.4167 16.3961 10.4167 15.625C10.4167 14.4744 11.3494 13.5417 12.5 13.5417C13.6506 13.5417 14.5833 14.4744 14.5833 15.625Z" fill="#FCFCFD"></path>
        <path fill-rule="evenodd" clip-rule="evenodd" d="M7.29175 6.24999C7.29175 3.37351 9.6236 1.04166 12.5001 1.04166C15.3766 1.04166 17.7084 3.37351 17.7084 6.24999V10.4167C17.7084 10.992 17.242 11.4583 16.6667 11.4583C16.0915 11.4583 15.6251 10.992 15.6251 10.4167V6.24999C15.6251 4.5241 14.226 3.12499 12.5001 3.12499C10.7742 3.12499 9.37508 4.5241 9.37508 6.24999V10.4167C9.37508 10.992 8.90871 11.4583 8.33341 11.4583C7.75812 11.4583 7.29175 10.992 7.29175 10.4167V6.24999Z" fill="#FCFCFD"></path>
    </symbol>
    <symbol fill="none" xmlns="http://www.w3.org/2000/svg" viewBox="0 0 35 35" id="megaphone">
        <path d="M6.72259 23.3333C6.26245 23.3333 5.91717 23.7537 6.00712 24.2049C6.24159 25.3813 6.65305 27.4514 6.85646 28.51C7.15061 30.0408 8.03462 30.625 9.2523 30.625C10.5858 30.625 11.6668 29.544 11.6668 28.2105V24.0625C11.6668 23.6598 11.3403 23.3333 10.9376 23.3333H6.72259Z" fill="#353945"></path>
        <path d="M5.83337 11.6667C3.41713 11.6667 1.45837 13.6254 1.45837 16.0417C1.45837 18.4579 3.41713 20.4167 5.83337 20.4167C8.02087 20.4167 8.75004 20.4167 10.9375 20.4167C11.3402 20.4167 11.6667 20.0902 11.6667 19.6875V12.3958C11.6667 11.9931 11.3402 11.6667 10.9375 11.6667C8.75004 11.6667 8.02087 11.6667 5.83337 11.6667Z" fill="#353945"></path>
        <path d="M15.0345 10.3982C14.7637 10.5192 14.5834 10.7846 14.5834 11.0812V21.0022C14.5834 21.2987 14.7637 21.5642 15.0345 21.6851C15.5666 21.9229 16.0858 22.1931 16.5888 22.4949L23.2911 26.5163C25.2351 27.6827 27.7084 26.2824 27.7084 24.0153V8.06807C27.7084 5.80096 25.2351 4.40063 23.2911 5.56705L16.5888 9.58845C16.0858 9.89025 15.5666 10.1605 15.0345 10.3982Z" fill="#353945"></path>
        <path d="M30.625 14.5833C30.625 13.7779 31.2779 13.125 32.0833 13.125C32.8887 13.125 33.5417 13.7779 33.5417 14.5833V17.5C33.5417 18.3054 32.8887 18.9583 32.0833 18.9583C31.2779 18.9583 30.625 18.3054 30.625 17.5V14.5833Z" fill="#353945"></path>
    </symbol>
    <symbol fill="none" xmlns="http://www.w3.org/2000/svg" viewBox="0 0 25 25" id="skype">
        <g clip-path="url(#clip0_1_2722)">
            <circle cx="12.5" cy="12.6953" r="7.95898" fill="#D9D9D9"></circle>
            <path d="M24.0175 14.5456C24.1361 13.8661 24.1953 13.1774 24.1945 12.4876C24.209 9.0225 22.6865 5.72928 20.0372 3.49564C17.388 1.262 13.8849 0.317906 10.4721 0.917858C9.42304 0.313902 8.23334 -0.00269912 7.02289 -1.3574e-05C4.53837 0.015172 2.24823 1.34676 1.006 3.49847C-0.23629 5.65018 -0.244298 8.2993 0.984853 10.4585C0.299013 14.2271 1.50043 18.093 4.20165 20.8089C6.90287 23.5249 10.7621 24.7474 14.5344 24.0821C15.5821 24.6855 16.7704 25.0021 17.9794 25C20.4627 24.984 22.7514 23.653 23.9934 21.5026C25.2354 19.3521 25.2445 16.7045 24.0175 14.5456ZM12.5485 20.0238C12.5492 20.0238 12.5498 20.0238 12.5505 20.0238H12.5464C12.5471 20.0239 12.5478 20.0238 12.5485 20.0238C8.39701 20.0231 6.50018 17.908 6.50018 16.3566C6.4996 15.9864 6.65155 15.6324 6.9202 15.3777C7.18886 15.1231 7.55053 14.9903 7.92016 15.0107C9.69823 15.0107 9.23314 17.6778 12.5505 17.6778C14.2463 17.6778 15.2423 16.6571 15.2423 15.6981C15.2423 15.1219 14.913 14.4633 13.7935 14.1999L10.0892 13.2656C7.11347 12.5082 6.59486 10.8536 6.59486 9.31844C6.59486 6.1327 9.50893 4.98026 12.283 4.98026C14.839 4.98026 17.8766 6.39203 17.8766 8.30179C17.8766 9.12499 17.1892 9.56537 16.3907 9.56537C14.872 9.56537 15.1271 7.43334 12.0731 7.43334C10.5544 7.43334 9.7559 8.1454 9.7559 9.14139C9.7559 10.1374 10.9371 10.4749 11.9744 10.7013L14.7073 11.3187C17.7037 11.9937 18.5022 13.7512 18.5022 15.4346C18.5021 18.0231 16.4984 20.0231 12.5485 20.0238Z" fill="#0079DA"></path>
        </g>
        <defs>
            <clipPath id="clip0_1_2722">
                <rect width="25" height="25" fill="white"></rect>
            </clipPath>
        </defs>
    </symbol>
    <symbol fill="none" xmlns="http://www.w3.org/2000/svg" viewBox="0 0 36 35" id="smile">
        <path fill-rule="evenodd" clip-rule="evenodd" d="M32.5833 17.5C32.5833 25.5542 26.0541 32.0833 18 32.0833C9.94581 32.0833 3.41663 25.5542 3.41663 17.5C3.41663 9.44585 9.94581 2.91667 18 2.91667C26.0541 2.91667 32.5833 9.44585 32.5833 17.5ZM13.5844 20.0737C13.395 19.2909 12.6068 18.8098 11.824 18.9992C11.0412 19.1887 10.5601 19.9768 10.7495 20.7597C11.1329 22.3442 12.0733 23.7404 13.3935 24.7305C14.7121 25.7195 16.3367 26.25 18.0003 26.25C19.6639 26.25 21.2884 25.7195 22.6071 24.7305C23.9272 23.7404 24.8676 22.3442 25.2511 20.7597C25.4405 19.9768 24.9594 19.1887 24.1766 18.9992C23.3938 18.8098 22.6056 19.2909 22.4162 20.0737C22.1983 20.9743 21.6567 21.7975 20.8571 22.3972C20.056 22.998 19.0488 23.3333 18.0003 23.3333C16.9518 23.3333 15.9446 22.998 15.1435 22.3972C14.3439 21.7975 13.8023 20.9743 13.5844 20.0737ZM15.3434 16.0182C14.551 16.1621 13.792 15.6362 13.6481 14.8437C13.6417 14.8085 13.6337 14.7767 13.6247 14.7482C13.6157 14.7767 13.6077 14.8085 13.6013 14.8437C13.4575 15.6362 12.6984 16.1621 11.906 16.0182C11.1135 15.8744 10.5877 15.1154 10.7315 14.3229C10.8528 13.6542 11.1603 13.0033 11.6606 12.5031C12.1674 11.9962 12.8564 11.6667 13.6247 11.6667C14.393 11.6667 15.082 11.9962 15.5888 12.5031C16.0891 13.0033 16.3966 13.6542 16.5179 14.3229C16.6618 15.1154 16.1359 15.8744 15.3434 16.0182ZM22.3981 14.8437C22.542 15.6362 23.301 16.1621 24.0934 16.0182C24.8859 15.8744 25.4118 15.1154 25.2679 14.3229C25.1466 13.6542 24.8391 13.0033 24.3389 12.5031C23.832 11.9962 23.143 11.6667 22.3747 11.6667C21.6064 11.6667 20.9174 11.9962 20.4106 12.5031C19.9103 13.0033 19.6028 13.6542 19.4815 14.3229C19.3377 15.1154 19.8635 15.8744 20.656 16.0182C21.4484 16.1621 22.2075 15.6362 22.3513 14.8437C22.3577 14.8085 22.3657 14.7767 22.3747 14.7482C22.3837 14.7767 22.3918 14.8085 22.3981 14.8437Z" fill="#353945"></path>
    </symbol>
    <symbol fill="none" xmlns="http://www.w3.org/2000/svg" viewBox="0 0 24 24" id="star">
        <path d="M11.0818 3.1277C11.4292 2.32265 12.5708 2.32265 12.9182 3.1277L15.0982 8.17958C15.2453 8.52047 15.5691 8.7518 15.9393 8.7804L21.53 9.21239C22.4269 9.2817 22.7833 10.4078 22.0896 10.9806L17.8852 14.4518C17.5886 14.6967 17.4588 15.0899 17.5512 15.4632L18.8451 20.6915C19.0579 21.5513 18.1304 22.2429 17.3671 21.7935L12.5073 18.9326C12.1942 18.7482 11.8058 18.7482 11.4927 18.9326L6.63294 21.7935C5.86964 22.2429 4.94212 21.5513 5.15491 20.6915L6.44884 15.4632C6.54123 15.0899 6.41136 14.6967 6.1148 14.4518L1.91042 10.9806C1.21666 10.4078 1.57306 9.2817 2.47005 9.21239L8.0607 8.7804C8.43087 8.7518 8.75472 8.52047 8.90182 8.17958L11.0818 3.1277Z" fill="#353945"></path>
    </symbol>
    <symbol fill="none" xmlns="http://www.w3.org/2000/svg" viewBox="0 0 25 25" id="telegram">
        <g clip-path="url(#clip0_1_2718)">
            <path d="M12.5 25C19.4036 25 25 19.4036 25 12.5C25 5.59644 19.4036 0 12.5 0C5.59644 0 0 5.59644 0 12.5C0 19.4036 5.59644 25 12.5 25Z" fill="#039BE5"></path>
            <path d="M5.7197 12.2292L17.7718 7.58229C18.3312 7.38021 18.8197 7.71875 18.6384 8.56459L18.6395 8.56354L16.5874 18.2313C16.4353 18.9167 16.028 19.0833 15.4582 18.7604L12.3332 16.4573L10.8259 17.9094C10.6593 18.076 10.5187 18.2167 10.1957 18.2167L10.4176 15.0365L16.2093 9.80417C16.4614 9.58229 16.153 9.45729 15.8207 9.67813L8.66345 14.1844L5.57803 13.2219C4.90824 13.0094 4.89366 12.5521 5.7197 12.2292Z" fill="white"></path>
        </g>
        <defs>
            <clipPath id="clip0_1_2718">
                <rect width="25" height="25" fill="white"></rect>
            </clipPath>
        </defs>
    </symbol>
    <symbol fill="none" xmlns="http://www.w3.org/2000/svg" viewBox="0 0 25 25" id="user">
        <path fill-rule="evenodd" clip-rule="evenodd" d="M19.6021 14.7133C18.96 13.9689 17.8571 14.0072 16.9947 14.4793C15.6602 15.2097 14.1286 15.625 12.5 15.625C10.8714 15.625 9.33977 15.2097 8.00526 14.4793C7.14288 14.0072 6.04001 13.9689 5.39792 14.7133C3.98148 16.3556 3.125 18.4944 3.125 20.8333V21.875C3.125 23.0256 4.05774 23.9583 5.20833 23.9583H19.7917C20.9423 23.9583 21.875 23.0256 21.875 21.875V20.8333C21.875 18.4944 21.0185 16.3556 19.6021 14.7133Z" fill="#FCFCFD"></path>
        <path d="M17.7084 6.25002C17.7084 9.1265 15.3766 11.4584 12.5001 11.4584C9.6236 11.4584 7.29175 9.1265 7.29175 6.25002C7.29175 3.37354 9.6236 1.04169 12.5001 1.04169C15.3766 1.04169 17.7084 3.37354 17.7084 6.25002Z" fill="#FCFCFD"></path>
    </symbol>

    <symbol fill="none" viewBox="0 0 14 14" xmlns="http://www.w3.org/2000/svg" id="close">
            <path fill-rule="evenodd" clip-rule="evenodd" d="M0.292893 0.292893C0.683417 -0.0976309 1.31658 -0.0976309 1.70711 0.292893L7 5.58579L12.2929 0.292893C12.6834 -0.0976311 13.3166 -0.0976311 13.7071 0.292893C14.0976 0.683417 14.0976 1.31658 13.7071 1.70711L8.41421 7L13.7071 12.2929C14.0976 12.6834 14.0976 13.3166 13.7071 13.7071C13.3166 14.0976 12.6834 14.0976 12.2929 13.7071L7 8.41421L1.70711 13.7071C1.31658 14.0976 0.683418 14.0976 0.292893 13.7071C-0.0976309 13.3166 -0.0976309 12.6834 0.292893 12.2929L5.58579 7L0.292893 1.70711C-0.0976311 1.31658 -0.0976311 0.683418 0.292893 0.292893Z" fill="#777E91"/>
    </symbol>
</svg>
