<svg width="35" height="35" viewBox="0 0 35 35" fill="none" xmlns="http://www.w3.org/2000/svg">
<path fill-rule="evenodd" clip-rule="evenodd" d="M1.45825 8.75C1.45825 6.33376 3.41701 4.375 5.83325 4.375H29.1666C31.5828 4.375 33.5416 6.33375 33.5416 8.75V26.25C33.5416 28.6662 31.5828 30.625 29.1666 30.625H5.83325C3.41701 30.625 1.45825 28.6662 1.45825 26.25V8.75ZM7.29159 21.875C7.29159 21.0696 7.9445 20.4167 8.74992 20.4167C9.55534 20.4167 10.2083 21.0696 10.2083 21.875V24.7917C10.2083 25.5971 9.55534 26.25 8.74992 26.25C7.9445 26.25 7.29159 25.5971 7.29159 24.7917V21.875ZM14.5833 11.6667C13.7778 11.6667 13.1249 12.3196 13.1249 13.125V24.7917C13.1249 25.5971 13.7778 26.25 14.5833 26.25C15.3887 26.25 16.0416 25.5971 16.0416 24.7917V13.125C16.0416 12.3196 15.3887 11.6667 14.5833 11.6667ZM18.9583 16.0417C18.9583 15.2363 19.6112 14.5833 20.4166 14.5833C21.222 14.5833 21.8749 15.2363 21.8749 16.0417V24.7917C21.8749 25.5971 21.222 26.25 20.4166 26.25C19.6112 26.25 18.9583 25.5971 18.9583 24.7917V16.0417ZM26.2499 8.75C25.4445 8.75 24.7916 9.40292 24.7916 10.2083V24.7917C24.7916 25.5971 25.4445 26.25 26.2499 26.25C27.0553 26.25 27.7083 25.5971 27.7083 24.7917V10.2083C27.7083 9.40292 27.0553 8.75 26.2499 8.75Z" fill="#353945"/>
</svg>
