<svg width="35" height="35" viewBox="0 0 35 35" fill="none" xmlns="http://www.w3.org/2000/svg">
<path d="M6.72259 23.3333C6.26245 23.3333 5.91717 23.7537 6.00712 24.2049C6.24159 25.3813 6.65305 27.4514 6.85646 28.51C7.15061 30.0408 8.03462 30.625 9.2523 30.625C10.5858 30.625 11.6668 29.544 11.6668 28.2105V24.0625C11.6668 23.6598 11.3403 23.3333 10.9376 23.3333H6.72259Z" fill="#353945"/>
<path d="M5.83337 11.6667C3.41713 11.6667 1.45837 13.6254 1.45837 16.0417C1.45837 18.4579 3.41713 20.4167 5.83337 20.4167C8.02087 20.4167 8.75004 20.4167 10.9375 20.4167C11.3402 20.4167 11.6667 20.0902 11.6667 19.6875V12.3958C11.6667 11.9931 11.3402 11.6667 10.9375 11.6667C8.75004 11.6667 8.02087 11.6667 5.83337 11.6667Z" fill="#353945"/>
<path d="M15.0345 10.3982C14.7637 10.5192 14.5834 10.7846 14.5834 11.0812V21.0022C14.5834 21.2987 14.7637 21.5642 15.0345 21.6851C15.5666 21.9229 16.0858 22.1931 16.5888 22.4949L23.2911 26.5163C25.2351 27.6827 27.7084 26.2824 27.7084 24.0153V8.06807C27.7084 5.80096 25.2351 4.40063 23.2911 5.56705L16.5888 9.58845C16.0858 9.89025 15.5666 10.1605 15.0345 10.3982Z" fill="#353945"/>
<path d="M30.625 14.5833C30.625 13.7779 31.2779 13.125 32.0833 13.125C32.8887 13.125 33.5417 13.7779 33.5417 14.5833V17.5C33.5417 18.3054 32.8887 18.9583 32.0833 18.9583C31.2779 18.9583 30.625 18.3054 30.625 17.5V14.5833Z" fill="#353945"/>
</svg>
