<svg width="25" height="25" viewBox="0 0 25 25" fill="none" xmlns="http://www.w3.org/2000/svg">
<g clip-path="url(#clip0_1_2722)">
<circle cx="12.5" cy="12.6953" r="7.95898" fill="#D9D9D9"/>
<path d="M24.0175 14.5456C24.1361 13.8661 24.1953 13.1774 24.1945 12.4876C24.209 9.0225 22.6865 5.72928 20.0372 3.49564C17.388 1.262 13.8849 0.317906 10.4721 0.917858C9.42304 0.313902 8.23334 -0.00269912 7.02289 -1.3574e-05C4.53837 0.015172 2.24823 1.34676 1.006 3.49847C-0.23629 5.65018 -0.244298 8.2993 0.984853 10.4585C0.299013 14.2271 1.50043 18.093 4.20165 20.8089C6.90287 23.5249 10.7621 24.7474 14.5344 24.0821C15.5821 24.6855 16.7704 25.0021 17.9794 25C20.4627 24.984 22.7514 23.653 23.9934 21.5026C25.2354 19.3521 25.2445 16.7045 24.0175 14.5456ZM12.5485 20.0238C12.5492 20.0238 12.5498 20.0238 12.5505 20.0238H12.5464C12.5471 20.0239 12.5478 20.0238 12.5485 20.0238C8.39701 20.0231 6.50018 17.908 6.50018 16.3566C6.4996 15.9864 6.65155 15.6324 6.9202 15.3777C7.18886 15.1231 7.55053 14.9903 7.92016 15.0107C9.69823 15.0107 9.23314 17.6778 12.5505 17.6778C14.2463 17.6778 15.2423 16.6571 15.2423 15.6981C15.2423 15.1219 14.913 14.4633 13.7935 14.1999L10.0892 13.2656C7.11347 12.5082 6.59486 10.8536 6.59486 9.31844C6.59486 6.1327 9.50893 4.98026 12.283 4.98026C14.839 4.98026 17.8766 6.39203 17.8766 8.30179C17.8766 9.12499 17.1892 9.56537 16.3907 9.56537C14.872 9.56537 15.1271 7.43334 12.0731 7.43334C10.5544 7.43334 9.7559 8.1454 9.7559 9.14139C9.7559 10.1374 10.9371 10.4749 11.9744 10.7013L14.7073 11.3187C17.7037 11.9937 18.5022 13.7512 18.5022 15.4346C18.5021 18.0231 16.4984 20.0231 12.5485 20.0238Z" fill="#0079DA"/>
</g>
<defs>
<clipPath id="clip0_1_2722">
<rect width="25" height="25" fill="white"/>
</clipPath>
</defs>
</svg>
