<svg width="36" height="35" viewBox="0 0 36 35" fill="none" xmlns="http://www.w3.org/2000/svg">
<path fill-rule="evenodd" clip-rule="evenodd" d="M32.5833 17.5C32.5833 25.5542 26.0541 32.0833 18 32.0833C9.94581 32.0833 3.41663 25.5542 3.41663 17.5C3.41663 9.44585 9.94581 2.91667 18 2.91667C26.0541 2.91667 32.5833 9.44585 32.5833 17.5ZM13.5844 20.0737C13.395 19.2909 12.6068 18.8098 11.824 18.9992C11.0412 19.1887 10.5601 19.9768 10.7495 20.7597C11.1329 22.3442 12.0733 23.7404 13.3935 24.7305C14.7121 25.7195 16.3367 26.25 18.0003 26.25C19.6639 26.25 21.2884 25.7195 22.6071 24.7305C23.9272 23.7404 24.8676 22.3442 25.2511 20.7597C25.4405 19.9768 24.9594 19.1887 24.1766 18.9992C23.3938 18.8098 22.6056 19.2909 22.4162 20.0737C22.1983 20.9743 21.6567 21.7975 20.8571 22.3972C20.056 22.998 19.0488 23.3333 18.0003 23.3333C16.9518 23.3333 15.9446 22.998 15.1435 22.3972C14.3439 21.7975 13.8023 20.9743 13.5844 20.0737ZM15.3434 16.0182C14.551 16.1621 13.792 15.6362 13.6481 14.8437C13.6417 14.8085 13.6337 14.7767 13.6247 14.7482C13.6157 14.7767 13.6077 14.8085 13.6013 14.8437C13.4575 15.6362 12.6984 16.1621 11.906 16.0182C11.1135 15.8744 10.5877 15.1154 10.7315 14.3229C10.8528 13.6542 11.1603 13.0033 11.6606 12.5031C12.1674 11.9962 12.8564 11.6667 13.6247 11.6667C14.393 11.6667 15.082 11.9962 15.5888 12.5031C16.0891 13.0033 16.3966 13.6542 16.5179 14.3229C16.6618 15.1154 16.1359 15.8744 15.3434 16.0182ZM22.3981 14.8437C22.542 15.6362 23.301 16.1621 24.0934 16.0182C24.8859 15.8744 25.4118 15.1154 25.2679 14.3229C25.1466 13.6542 24.8391 13.0033 24.3389 12.5031C23.832 11.9962 23.143 11.6667 22.3747 11.6667C21.6064 11.6667 20.9174 11.9962 20.4106 12.5031C19.9103 13.0033 19.6028 13.6542 19.4815 14.3229C19.3377 15.1154 19.8635 15.8744 20.656 16.0182C21.4484 16.1621 22.2075 15.6362 22.3513 14.8437C22.3577 14.8085 22.3657 14.7767 22.3747 14.7482C22.3837 14.7767 22.3918 14.8085 22.3981 14.8437Z" fill="#353945"/>
</svg>
