<svg width="24" height="24" viewBox="0 0 24 24" fill="none" xmlns="http://www.w3.org/2000/svg">
<path d="M11.0818 3.1277C11.4292 2.32265 12.5708 2.32265 12.9182 3.1277L15.0982 8.17958C15.2453 8.52047 15.5691 8.7518 15.9393 8.7804L21.53 9.21239C22.4269 9.2817 22.7833 10.4078 22.0896 10.9806L17.8852 14.4518C17.5886 14.6967 17.4588 15.0899 17.5512 15.4632L18.8451 20.6915C19.0579 21.5513 18.1304 22.2429 17.3671 21.7935L12.5073 18.9326C12.1942 18.7482 11.8058 18.7482 11.4927 18.9326L6.63294 21.7935C5.86964 22.2429 4.94212 21.5513 5.15491 20.6915L6.44884 15.4632C6.54123 15.0899 6.41136 14.6967 6.1148 14.4518L1.91042 10.9806C1.21666 10.4078 1.57306 9.2817 2.47005 9.21239L8.0607 8.7804C8.43087 8.7518 8.75472 8.52047 8.90182 8.17958L11.0818 3.1277Z" fill="#23262F"/>
</svg>
