<svg width="25" height="25" viewBox="0 0 25 25" fill="none" xmlns="http://www.w3.org/2000/svg">
<g clip-path="url(#clip0_1_2718)">
<path d="M12.5 25C19.4036 25 25 19.4036 25 12.5C25 5.59644 19.4036 0 12.5 0C5.59644 0 0 5.59644 0 12.5C0 19.4036 5.59644 25 12.5 25Z" fill="#039BE5"/>
<path d="M5.7197 12.2292L17.7718 7.58229C18.3312 7.38021 18.8197 7.71875 18.6384 8.56459L18.6395 8.56354L16.5874 18.2313C16.4353 18.9167 16.028 19.0833 15.4582 18.7604L12.3332 16.4573L10.8259 17.9094C10.6593 18.076 10.5187 18.2167 10.1957 18.2167L10.4176 15.0365L16.2093 9.80417C16.4614 9.58229 16.153 9.45729 15.8207 9.67813L8.66345 14.1844L5.57803 13.2219C4.90824 13.0094 4.89366 12.5521 5.7197 12.2292Z" fill="white"/>
</g>
<defs>
<clipPath id="clip0_1_2718">
<rect width="25" height="25" fill="white"/>
</clipPath>
</defs>
</svg>
