<svg width="25" height="25" viewBox="0 0 25 25" fill="none" xmlns="http://www.w3.org/2000/svg">
<path fill-rule="evenodd" clip-rule="evenodd" d="M19.6021 14.7133C18.96 13.9689 17.8571 14.0072 16.9947 14.4793C15.6602 15.2097 14.1286 15.625 12.5 15.625C10.8714 15.625 9.33977 15.2097 8.00526 14.4793C7.14288 14.0072 6.04001 13.9689 5.39792 14.7133C3.98148 16.3556 3.125 18.4944 3.125 20.8333V21.875C3.125 23.0256 4.05774 23.9583 5.20833 23.9583H19.7917C20.9423 23.9583 21.875 23.0256 21.875 21.875V20.8333C21.875 18.4944 21.0185 16.3556 19.6021 14.7133Z" fill="#FCFCFD"/>
<path d="M17.7084 6.25002C17.7084 9.1265 15.3766 11.4584 12.5001 11.4584C9.6236 11.4584 7.29175 9.1265 7.29175 6.25002C7.29175 3.37354 9.6236 1.04169 12.5001 1.04169C15.3766 1.04169 17.7084 3.37354 17.7084 6.25002Z" fill="#FCFCFD"/>
</svg>
