<svg width="888" height="129" viewBox="0 0 888 129" fill="none" xmlns="http://www.w3.org/2000/svg">
<path d="M1 19.95L20.7552 80.5725C21.2889 82.2102 23.5052 82.4522 24.3798 80.9684L44.4041 46.9946C44.576 46.703 44.8191 46.4598 45.1106 46.2877L70.7074 31.1822C71.8039 30.5351 73.2179 31.0637 73.621 32.2715L90.9598 84.2193C91.0835 84.59 91.3131 84.9163 91.6202 85.1579L122.955 109.814C123.974 110.615 125.474 110.251 126.012 109.072L153.749 48.2753C154.19 47.3079 155.311 46.855 156.3 47.2443L174.25 54.3058C175.086 54.6348 176.039 54.3657 176.579 53.6479L206.913 13.371C207.931 12.019 210.064 12.4642 210.456 14.1106L221.338 59.7782C221.697 61.2818 223.553 61.828 224.668 60.7581L266.423 20.7172C266.92 20.2399 267.629 20.0527 268.297 20.2218L305.865 29.7232C306.376 29.8525 306.918 29.7747 307.372 29.5067L355.152 1.30999C356.277 0.646173 357.726 1.22115 358.09 2.47563L374.858 60.3253C375.253 61.6877 376.901 62.2174 378.015 61.3403L415.449 31.8862C416.605 30.9766 418.314 31.5842 418.637 33.0193L434.718 104.56C435.159 106.523 437.895 106.68 438.558 104.78L455.505 56.2037C455.785 55.4005 456.543 54.8625 457.393 54.8625H487.476C488.045 54.8625 488.587 55.105 488.967 55.5292L513.764 83.2559C514.514 84.095 515.809 84.1497 516.628 83.3768L562.342 40.213C563.355 39.2559 565.013 39.6034 565.556 40.887L577.429 68.9132C577.964 70.1757 579.582 70.5379 580.604 69.624L624.311 30.5438C624.75 30.1514 625.34 29.9723 625.923 30.0542L683.389 38.1286C683.887 38.1986 684.341 38.454 684.659 38.8437L721.928 84.4594C722.104 84.6757 722.324 84.8526 722.574 84.9787L751.484 99.6023C751.677 99.7001 751.885 99.7659 752.1 99.7969L830.835 111.209C831.589 111.318 832.214 111.845 832.45 112.569L837.191 127.117C837.792 128.962 840.405 128.956 840.997 127.108L858.596 72.2125C858.746 71.7455 859.062 71.3498 859.484 71.1006L887 54.8625" stroke="#353945"/>
</svg>
