<svg width="902" height="180" viewBox="0 0 902 180" fill="none" xmlns="http://www.w3.org/2000/svg">
<path d="M1 25.5417L38.3936 107.812C39.1934 109.572 41.7767 109.286 42.172 107.394L52.0109 60.305C52.0877 59.9374 52.2664 59.5989 52.5266 59.3282L72.324 38.7302C73.3481 37.6648 75.1341 38.0396 75.6435 39.4268L103.78 116.06C103.896 116.376 104.09 116.658 104.344 116.879L140.808 148.622C141.912 149.583 143.641 149.071 144.044 147.664L169.459 58.9043C169.996 57.0278 172.628 56.9535 173.27 58.7966L183.972 89.5031C184.498 91.0118 186.493 91.3254 187.456 90.0507L221.423 45.1008C222.225 44.0401 223.819 44.0422 224.618 45.1051L251.232 80.5218C252.116 81.6988 253.926 81.5491 254.605 80.2428L282.835 25.9378C283.591 24.4836 285.679 24.5061 286.404 25.9762L304.948 63.607C305.603 64.9362 307.426 65.1164 308.328 63.941L356.077 1.76246C357.017 0.538048 358.931 0.795373 359.515 2.22464L391.313 80.1112C391.87 81.4764 393.663 81.7896 394.651 80.694L431.739 39.5335C432.864 38.2844 434.935 38.8972 435.2 40.5575L451.104 140.354C451.451 142.532 454.551 142.627 455.031 140.475L472.563 61.9765C472.827 60.7944 474.073 60.1165 475.209 60.5367L503.946 71.1675C504.357 71.3195 504.707 71.6023 504.941 71.9723L529.572 110.816C530.34 112.028 532.097 112.061 532.91 110.877L577.632 45.7359C578.487 44.4901 580.362 44.6064 581.057 45.9483L603.814 89.9015C604.528 91.281 606.474 91.3551 607.291 90.0341L639.629 37.7598C640.114 36.9756 641.072 36.6247 641.949 36.9104L761.187 75.7517C762.211 76.0855 762.787 77.1708 762.489 78.2063L750.871 118.595C750.406 120.209 752.018 121.642 753.567 120.992L782.758 108.736C783.526 108.414 784.414 108.601 784.986 109.207L815.553 141.567L850.803 178.32C851.905 179.469 853.844 178.932 854.197 177.379L872.834 95.3812C872.932 94.9528 873.167 94.5683 873.505 94.2873L901 71.4019" stroke="#777E90"/>
</svg>
