<svg width="385" height="161" viewBox="0 0 385 161" fill="none" xmlns="http://www.w3.org/2000/svg">
<g opacity="0.3">
<rect x="3.22656" y="137" width="13.0566" height="24" rx="2" fill="white"/>
<rect x="20.2832" y="116" width="13.0566" height="45" rx="2" fill="#E6E8EC" fill-opacity="0.5"/>
<rect x="37.3398" y="138" width="13.0566" height="23" rx="2" fill="white"/>
<rect x="54.396" y="48" width="13.0566" height="113" rx="2" fill="white"/>
<rect x="71.4526" y="66" width="13.0566" height="95" rx="2" fill="#E6E8EC" fill-opacity="0.5"/>
<rect x="88.5093" y="85" width="13.0566" height="76" rx="2" fill="#E6E8EC" fill-opacity="0.5"/>
<rect x="105.566" y="85" width="13.0566" height="76" rx="2" fill="#E6E8EC" fill-opacity="0.5"/>
<rect x="122.623" y="137" width="13.0566" height="24" rx="2" fill="white"/>
<rect x="139.679" y="92" width="13.0566" height="69" rx="2" fill="white"/>
<rect x="156.736" y="75" width="13.0566" height="86" rx="2" fill="white"/>
<rect x="173.792" y="116" width="13.0566" height="45" rx="2" fill="#E6E8EC" fill-opacity="0.5"/>
<rect x="190.849" y="138" width="13.0566" height="23" rx="2" fill="white"/>
<rect x="207.906" y="103" width="13.0566" height="58" rx="2" fill="white"/>
<rect x="224.962" y="66" width="13.0566" height="95" rx="2" fill="#E6E8EC" fill-opacity="0.5"/>
<rect x="242.019" y="85" width="13.0566" height="76" rx="2" fill="#E6E8EC" fill-opacity="0.5"/>
<rect x="259.076" y="85" width="13.0566" height="76" rx="2" fill="#E6E8EC" fill-opacity="0.5"/>
<rect x="276.132" y="61" width="13.0566" height="100" rx="2" fill="white"/>
<rect x="293.189" y="92" width="13.0566" height="69" rx="2" fill="white"/>
<rect x="310.245" y="85" width="13.0566" height="76" rx="2" fill="white"/>
<rect x="327.302" y="116" width="13.0566" height="45" rx="2" fill="#E6E8EC" fill-opacity="0.5"/>
<rect x="344.358" y="137" width="13.0566" height="24" rx="2" fill="white"/>
<rect x="361.415" y="109" width="13.0566" height="52" rx="2" fill="white"/>
<rect x="378.472" y="66" width="13.0566" height="95" rx="2" fill="#E6E8EC" fill-opacity="0.5"/>
</g>
</svg>
