<svg width="385" height="167" viewBox="0 0 385 167" fill="none" xmlns="http://www.w3.org/2000/svg">
<path d="M-3 12.5417L34.3936 94.8123C35.1934 96.5722 37.7767 96.2861 38.172 94.3938L48.0109 47.305C48.0877 46.9374 48.2664 46.5989 48.5266 46.3282L68.324 25.7302C69.3481 24.6648 71.1341 25.0396 71.6435 26.4268L99.7802 103.06C99.8963 103.376 100.09 103.658 100.344 103.879L136.808 135.622C137.912 136.583 139.641 136.071 140.044 134.664L165.459 45.9043C165.996 44.0278 168.628 43.9535 169.27 45.7966L179.972 76.5031C180.498 78.0118 182.493 78.3254 183.456 77.0507L217.423 32.1008C218.225 31.0401 219.819 31.0422 220.618 32.1051L247.232 67.5218C248.116 68.6988 249.926 68.5491 250.605 67.2428L278.835 12.9378C279.591 11.4836 281.679 11.5061 282.404 12.9762L300.948 50.607C301.603 51.9362 303.426 52.1164 304.328 50.941L352.077 -11.2375C353.017 -12.462 354.931 -12.2046 355.515 -10.7754L387.313 67.1112C387.87 68.4764 389.663 68.7896 390.651 67.694L427.739 26.5335C428.864 25.2844 430.935 25.8972 431.2 27.5575L447.104 127.354C447.451 129.532 450.551 129.627 451.031 127.475L468.563 48.9765C468.827 47.7944 470.073 47.1165 471.209 47.5367L499.946 58.1675C500.357 58.3195 500.707 58.6023 500.941 58.9723L525.572 97.8164C526.34 99.0284 528.097 99.0605 528.91 97.8774L573.632 32.7359C574.487 31.4901 576.362 31.6064 577.057 32.9483L599.814 76.9015C600.528 78.281 602.474 78.3551 603.291 77.0341L635.629 24.7598C636.114 23.9756 637.072 23.6247 637.949 23.9104L757.187 62.7517C758.211 63.0855 758.787 64.1708 758.489 65.2063L746.871 105.595C746.406 107.209 748.018 108.642 749.567 107.992L778.758 95.7362C779.526 95.4136 780.414 95.6012 780.986 96.2069L811.553 128.567L846.803 165.32C847.905 166.469 849.844 165.932 850.197 164.379L868.834 82.3812C868.932 81.9528 869.167 81.5683 869.505 81.2873L897 58.4019" stroke="#E6E8EC"/>
</svg>
