<svg width="385" height="129" viewBox="0 0 385 129" fill="none" xmlns="http://www.w3.org/2000/svg">
<path d="M-1 19.95L18.7552 80.5725C19.2889 82.2102 21.5052 82.4522 22.3798 80.9684L42.4041 46.9946C42.576 46.703 42.8191 46.4598 43.1106 46.2877L68.7074 31.1822C69.8039 30.5351 71.2179 31.0637 71.621 32.2715L88.9598 84.2193C89.0835 84.59 89.3131 84.9163 89.6202 85.1579L120.955 109.814C121.974 110.615 123.474 110.251 124.012 109.072L151.749 48.2753C152.19 47.3079 153.311 46.855 154.3 47.2443L172.25 54.3058C173.086 54.6348 174.039 54.3657 174.579 53.6479L204.913 13.371C205.931 12.019 208.064 12.4642 208.456 14.1106L219.338 59.7782C219.697 61.2818 221.553 61.828 222.668 60.7581L264.423 20.7172C264.92 20.2399 265.629 20.0527 266.297 20.2218L303.865 29.7232C304.376 29.8525 304.918 29.7747 305.372 29.5067L353.152 1.30999C354.277 0.646173 355.726 1.22115 356.09 2.47563L372.858 60.3253C373.253 61.6877 374.901 62.2174 376.015 61.3403L413.449 31.8862C414.605 30.9766 416.314 31.5842 416.637 33.0193L432.718 104.56C433.159 106.523 435.895 106.68 436.558 104.78L453.505 56.2037C453.785 55.4005 454.543 54.8625 455.393 54.8625H485.476C486.045 54.8625 486.587 55.105 486.967 55.5292L511.764 83.2559C512.514 84.095 513.809 84.1497 514.628 83.3768L560.342 40.213C561.355 39.2559 563.013 39.6034 563.556 40.887L575.429 68.9132C575.964 70.1757 577.582 70.5379 578.604 69.624L622.311 30.5438C622.75 30.1514 623.34 29.9723 623.923 30.0542L681.389 38.1286C681.887 38.1986 682.341 38.454 682.659 38.8437L719.928 84.4594C720.104 84.6757 720.324 84.8526 720.574 84.9787L749.484 99.6023C749.677 99.7001 749.885 99.7659 750.1 99.7969L828.835 111.209C829.589 111.318 830.214 111.845 830.45 112.569L835.191 127.117C835.792 128.962 838.405 128.956 838.997 127.108L856.596 72.2125C856.746 71.7455 857.062 71.3498 857.484 71.1006L885 54.8625" stroke="#FCFCFD"/>
</svg>
